<?xml version="1.0" encoding="UTF-8"?>
<svg width="48px" height="52px" viewBox="0 0 48 52" version="1.1" xmlns="http://www.w3.org/2000/svg" xmlns:xlink="http://www.w3.org/1999/xlink">
    <!-- Generator: Sketch 52.4 (67378) - http://www.bohemiancoding.com/sketch -->
    <title>pg1a_GROVE_Login</title>
    <desc>Created with Sketch.</desc>
    <g id="pg1a_GROVE_Login" stroke="none" stroke-width="1" fill="none" fill-rule="evenodd">
        <g id="Group-14">
            <path d="M48,24.0388184 L48,50 C48,51.1045695 47.1045695,52 46,52 L2,52 C0.8954305,52 1.3527075e-16,51.1045695 0,50 L0,24.0715332 C7.34000651,16.0373535 14.0113118,8.67976888 20.013916,1.9987793 C22.3405762,-0.585144043 25.5223999,-0.692443848 27.9993286,1.9987793 C34.4478636,9.12760417 41.1147541,16.4742839 48,24.0388184 Z" id="Rectangle" fill="#565656"></path>
            <rect id="Rectangle" fill="#12D1A3" x="5" y="10" width="38" height="32" rx="3"></rect>
            <rect id="Rectangle" fill="#4E4E4E" x="11" y="16" width="25" height="2" rx="1"></rect>
            <rect id="Rectangle" fill="#4E4E4E" x="11" y="20" width="20" height="2" rx="1"></rect>
            <rect id="Rectangle" fill="#4E4E4E" x="11" y="24" width="23" height="2" rx="1"></rect>
            <rect id="Rectangle" fill="#4E4E4E" x="11" y="28" width="17" height="2" rx="1"></rect>
            <path d="M22.5085449,33.1801758 C17.1587728,38.0385742 10.3487142,44.311849 2.07836914,52 L2,52 C0.8954305,52 1.3527075e-16,51.1045695 0,50 L0,24.0275879 C8.95125326,24.0275879 16.4541016,27.0784505 22.5085449,33.1801758 Z" id="Rectangle" fill="#6F6F6F"></path>
            <path d="M48,24.0239258 L48,50 C48,51.1045695 47.1045695,52 46,52 L39.0021973,52 C35.9380697,48.6448568 30.9373372,42.7015788 24,34.170166 C30,28.037679 38,24.655599 48,24.0239258 Z" id="Rectangle" fill="#6F6F6F"></path>
            <path d="M18,34.0744629 C23,30.0675049 25.0135498,30.0675049 30,34.0744629 C38.8625488,42.5705566 39.4297791,43.1631317 47.7146912,51.0321503 C47.5276337,51.3585663 46.9466705,52 46,52 C24.4328613,52 23.3586121,52 2,52 C0.988113403,52 0.410552979,51.264679 0.329467773,51.0900269 C8.86639404,42.8330688 10.4407959,41.3096924 18,34.0744629 Z" id="Rectangle" fill="#565656"></path>
        </g>
    </g>
</svg>
