<?xml version="1.0" encoding="UTF-8"?>
<svg width="73px" height="80px" viewBox="0 0 73 80" version="1.1" xmlns="http://www.w3.org/2000/svg" xmlns:xlink="http://www.w3.org/1999/xlink">
    <!-- Generator: Sketch 52.4 (67378) - http://www.bohemiancoding.com/sketch -->
    <title>pg1a_GROVE_Login</title>
    <desc>Created with Sketch.</desc>
    <g id="pg1a_GROVE_Login" stroke="none" stroke-width="1" fill="none" fill-rule="evenodd">
        <g id="Group-14">
            <path d="M72.998764,37 L72.998764,78.0000916 C72.998764,79.1046611 72.1033335,80.0000916 70.998764,80.0000916 L2,80.0000916 C0.8954305,80.0000916 -3.63784354e-12,79.1046611 -3.63797881e-12,78.0000916 L-2.04461961e-13,37.0474389 C11.1778453,24.6823127 21.3373484,13.3585105 30.4785093,3.07603209 C34.0217006,-0.900794332 38.8671913,-1.06593572 42.6392215,3.07603209 C52.4594753,14.0477582 62.5793228,25.3557475 72.998764,37 Z" id="Rectangle" fill="#007559"></path>
            <rect id="Rectangle" fill="#B0FFEC" x="7.61432927" y="15.2830189" width="57.8689024" height="48.9056604" rx="3"></rect>
            <rect id="Rectangle" fill="#4E4E4E" x="16.7515244" y="24.4528302" width="38.0716463" height="3.05660377" rx="1.52830189"></rect>
            <rect id="Rectangle" fill="#4E4E4E" x="16.7515244" y="30.5660377" width="30.4573171" height="3.05660377" rx="1.52830189"></rect>
            <rect id="Rectangle" fill="#4E4E4E" x="16.7515244" y="36.6792453" width="35.0259146" height="3.05660377" rx="1.52830189"></rect>
            <rect id="Rectangle" fill="#4E4E4E" x="16.7515244" y="42.7924528" width="25.8887195" height="3.05660377" rx="1.52830189"></rect>
            <path d="M34.2774945,50.7093253 C26.1305092,58.1344247 15.7046777,67.8963859 3,79.9952087 L1.81492514,79.8850724 C0.786491965,79.7894937 -3.63785232e-12,78.926519 -3.63797881e-12,77.893654 L-3.63797881e-12,37 C13.6315579,36.8142719 25.0573894,41.384047 34.2774945,50.7093253 Z" id="Rectangle" fill="#05614B"></path>
            <path d="M72.9930267,37 L73.0129392,78.0057981 C73.0134507,79.1103675 72.1184349,80.0062125 71.0138655,80.006724 C71.0135568,80.0067241 71.0132481,80.0067242 71.0129395,80.0067242 L59,80.0057983 C54.5971543,74.5220598 47.1134145,65.2609034 36.5487805,52.2223292 C45.6859756,42.8500378 57.8340577,37.775928 72.9930267,37 Z" id="Rectangle" fill="#05614B"></path>
            <path d="M27.2225973,52.5945304 C34.9254205,46.4684899 38.0274242,46.4684899 45.709373,52.5945304 C59.3627025,65.5837891 60.237839,65.9694456 73.0012817,78 C73.0012817,78.6183167 72.4584072,80 71,80 C37.7744286,80 35.4719191,80 2.56759644,80 C1.01547241,80 0,79.3310547 0,78 C13.1516868,65.3763441 15.5771547,63.6561159 27.2225973,52.5945304 Z" id="Rectangle" fill="#038667"></path>
        </g>
    </g>
</svg>
