<?xml version="1.0" encoding="UTF-8"?>
<svg width="82px" height="82px" viewBox="0 0 82 82" version="1.1" xmlns="http://www.w3.org/2000/svg" xmlns:xlink="http://www.w3.org/1999/xlink">
    <!-- Generator: Sketch 52.4 (67378) - http://www.bohemiancoding.com/sketch -->
    <title>pg1a_GROVE_Login</title>
    <desc>Created with Sketch.</desc>
    <defs>
        <path d="M0.256503497,28.2875524 C59.9040559,52.6696503 63.4766434,-22.0906294 76.3737063,6.90237762 C83.0562238,21.9247552 75.6931469,58.2111888 41.5102098,59.8646154" id="path-1"></path>
        <linearGradient x1="15.3445864%" y1="88.4276973%" x2="100.178397%" y2="16.2706193%" id="linearGradient-3">
            <stop stop-color="#FFFFFF" offset="0%"></stop>
            <stop stop-color="#FFFFFF" offset="100%"></stop>
        </linearGradient>
        <path d="M0.204755245,39.9071329 C0.204755245,39.9071329 0.678881119,21.7647552 12.4928671,10.8836364 C24.2408392,0.0632167832 44.0500699,-3.28839161 57.5297902,4.42125874" id="path-4"></path>
        <linearGradient x1="-2.74385753%" y1="93.0369539%" x2="85.4930961%" y2="-1.38607926%" id="linearGradient-6">
            <stop stop-color="#FFFFFF" offset="0%"></stop>
            <stop stop-color="#FFFFFF" offset="100%"></stop>
        </linearGradient>
    </defs>
    <g id="pg1a_GROVE_Login" stroke="none" stroke-width="1" fill="none" fill-rule="evenodd">
        <g id="Mangrove" transform="translate(1.000000, 1.000000)">
            <path d="M1.0958042,48.128 C-3.50895105,22.8368112 16.5805594,25.3624056 35.8681119,20.599049 C46.1758042,17.1067413 53.9201399,-6.65213986 72.0678322,17.6191888 C80.4186014,27.8681399 83.3576224,46.4096783 72.2076923,62.9478601 C71.8314685,62.0116364 73.1411189,28.4482797 65.1970629,30.9428252 C57.6373427,31.9238042 63.421958,72.6510769 63.421958,72.6510769 C62.1232168,73.587021 57.9640559,76.0175105 58.0591608,75.8751329 C57.9595804,76.4250629 49.1914685,31.9951329 62.8177622,25.0731748 C77.1246154,18.1747133 60.5802797,25.6105175 65.7713287,31.075972 C61.5537063,26.6354126 38.1620979,15.3598881 47.7246154,30.6088392 C52.8532867,38.787021 50.4379021,40.9355524 44.3900699,40.5305175 C42.5604196,39.602965 40.8795804,75.1282797 37.9506294,79.7537343 C37.9506294,79.7537343 30.4932867,79.1285594 30.573007,78.9931748 C35.2661538,71.0203077 40.7271329,40.5836643 40.4443357,30.9117762 C40.2888112,25.5881399 39.9226573,24.7112168 36.1822378,24.2857622 C18.4513287,23.1218462 25.7067133,57.4510769 18.9825175,74.8650629 C18.8314685,74.8647832 14.0124476,71.5053427 14.0124476,71.5053427 C18.199021,66.7098182 18.3268531,32.5817063 10.3467133,32.8997483 C4.09244755,33.1486993 12.5861538,48.413035 7.26503497,63.8356923" id="Fill-1" fill="#FFFFFF"></path>
            <g id="Group-9" transform="translate(0.000000, 0.260140)">
                <g id="Group-5" opacity="0.670805432" transform="translate(0.839161, 19.580420)">
                    <mask id="mask-2" fill="white">
                        <use xlink:href="#path-1"></use>
                    </mask>
                    <g id="Clip-4"></g>
                    <path d="M0.256503497,28.2875524 C0.256503497,28.2875524 4.32531469,61.6632168 41.5102098,59.8646154 C75.6931469,58.2111888 83.0562238,21.9247552 76.3737063,6.90237762 C63.4766434,-22.0906294 59.9040559,52.6696503 0.256503497,28.2875524" id="Fill-3" fill="url(#linearGradient-3)" mask="url(#mask-2)"></path>
                </g>
                <g id="Group-8">
                    <mask id="mask-5" fill="white">
                        <use xlink:href="#path-4"></use>
                    </mask>
                    <g id="Clip-7"></g>
                    <path d="M0.204755245,39.9071329 C0.204755245,39.9071329 0.678881119,21.7647552 12.4928671,10.8836364 C24.2408392,0.0632167832 44.0500699,-3.28839161 57.5297902,4.42125874 C88.7029371,22.2506294 20.8903497,-0.408671329 0.204755245,39.9071329" id="Fill-6" fill="url(#linearGradient-6)" mask="url(#mask-5)"></path>
                </g>
            </g>
        </g>
    </g>
</svg>
