<?xml version="1.0" encoding="UTF-8"?>
<svg width="188px" height="188px" viewBox="0 0 188 188" version="1.1" xmlns="http://www.w3.org/2000/svg" xmlns:xlink="http://www.w3.org/1999/xlink">
    <!-- Generator: Sketch 52.4 (67378) - http://www.bohemiancoding.com/sketch -->
    <title>pg1a_GROVE_Login</title>
    <desc>Created with Sketch.</desc>
    <defs>
        <path d="M0.604523316,66.5382266 C141.180916,123.890009 149.600732,-51.9617703 179.996323,16.2358326 C195.745573,51.5715997 178.392391,136.924864 97.8305949,140.814068" id="path-1"></path>
        <path d="M0.482563868,93.8699045 C0.482563868,93.8699045 1.5999761,51.1952463 29.4429884,25.600584 C57.1304199,0.148699067 103.816496,-7.7349833 135.585284,10.3997232" id="path-3"></path>
    </defs>
    <g id="pg1a_GROVE_Login" stroke="none" stroke-width="1" fill="none" fill-rule="evenodd">
        <g id="Mangrove">
            <path d="M2.58257371,113.2071 C-8.26983941,53.7169456 39.0767959,59.6576707 84.5333893,48.4532619 C108.826393,40.2386254 127.078119,-15.6472212 169.848308,41.4440089 C189.529267,65.5516806 196.455904,109.165248 170.177928,148.066503 C169.29125,145.86431 172.377813,66.9162906 153.65539,72.7839821 C135.838762,75.0914495 149.471851,170.890494 149.471851,170.890494 C146.410998,173.09203 136.608755,178.809048 136.832897,178.474147 C136.598207,179.767697 115.933662,75.2592294 148.047892,58.9773396 C181.766053,42.7507184 142.774629,60.2412817 155.00881,73.0971713 C145.068785,62.6520488 89.9398187,36.1296622 112.476606,71.9983773 C124.563776,91.2351676 118.871237,96.288962 104.617803,95.3362352 C100.305712,93.1544383 96.3443378,176.717392 89.441433,187.597426 C89.441433,187.597426 71.8660878,186.126885 72.0539713,185.808432 C83.1147043,167.054585 95.9850518,95.4612477 95.3185599,72.7109485 C94.9520223,60.1886448 94.0890769,58.1259387 85.2737161,57.1251809 C43.4857947,54.3874073 60.5851685,135.136922 44.737692,176.098251 C44.3817022,176.097593 33.0243111,168.195488 33.0243111,168.195488 C42.89116,156.915414 43.1924328,76.6389725 24.3849675,77.3870736 C9.64501458,77.9726584 29.662845,113.877561 17.1221176,150.15487" id="Fill-1" fill="#9E9E9E"></path>
            <g id="Group-9" transform="translate(0.000000, 0.611903)">
                <g id="Group-5" opacity="0.714239211" transform="translate(1.977721, 46.057233)">
                    <mask id="mask-2" fill="white">
                        <use xlink:href="#path-1"></use>
                    </mask>
                    <g id="Clip-4"></g>
                    <path d="M97.8305949,140.814068 C178.392391,136.924864 195.745573,51.5715997 179.996323,16.2358326 C149.600732,-51.9617703 141.180916,123.890009 0.604523316,66.5382266 C0.604523316,66.5382266 10.1938321,145.044754 97.8305949,140.814068 Z" id="Fill-3" fill="#0EC5E7"></path>
                </g>
                <g id="Group-8">
                    <mask id="mask-4" fill="white">
                        <use xlink:href="#path-3"></use>
                    </mask>
                    <g id="Clip-7"></g>
                    <path d="M0.482563868,93.8699045 C0.482563868,93.8699045 1.5999761,51.1952463 29.4429884,25.600584 C57.1304199,0.148699067 103.816496,-7.7349833 135.585284,10.3997232 C209.053656,52.3381237 49.2340401,-0.961280249 0.482563868,93.8699045" id="Fill-6" fill="#007559" opacity="0.800454"></path>
                </g>
            </g>
        </g>
    </g>
</svg>
